<?xml version="1.0" standalone="no"?><!DOCTYPE svg PUBLIC "-//W3C//DTD SVG 1.1//EN" "http://www.w3.org/Graphics/SVG/1.1/DTD/svg11.dtd"><svg t="1653982873455" class="icon" viewBox="0 0 1024 1024" version="1.1" xmlns="http://www.w3.org/2000/svg" p-id="4664" xmlns:xlink="http://www.w3.org/1999/xlink" width="200" height="200"><defs><style type="text/css"></style></defs><path d="M517.473334 982.281031l-411.108208-231.217959-5.351704-471.558143L506.648296 39.164746l410.986578 231.09633v4.135408l5.351704 467.422734-3.52726 2.189334-401.985984 238.272479zM120.474166 742.792256l396.755909 223.068773 391.647464-232.069367-5.230075-455.13814L506.891555 55.463119l-391.647464 232.069367 5.230075 455.25977z" fill="#3399FF" p-id="4665"></path><path d="M863.874569 300.181969l-354.550421-199.472621L157.692838 311.371897l2.675852 410.013541 347.131013 195.337213v0.973037h1.824445l5.594964 3.162371 348.955457-208.959734 2.554223-1.581185-2.554223-410.135171zM171.072099 707.033139l-2.675852-382.64687 335.697826 187.066398L171.072099 707.033139zM516.621927 117.25098l336.305974 189.134101-336.305974 197.648177v-386.782278z m-9.000594 385.809241L171.436988 315.628935 507.621333 114.331868v388.728353z m9.000594 15.325335l336.184345 187.431287-336.184345 201.418696V518.385556z m5.716593-7.176149L853.29279 316.723601l2.554223 380.335907-333.508493-185.850101z m-349.077088 204.945956l334.359901-196.43188v384.349685L173.261432 716.155363z" fill="#99CCFF" opacity=".5" p-id="4666"></path><path d="M507.621333 255.30063c-137.563131 0-248.732629 111.169498-248.732629 248.732628s111.169498 248.732629 248.732629 248.732629 248.732629-111.169498 248.732628-248.732629-111.291127-248.732629-248.732628-248.732628z m0 468.152512c-119.926832 0-219.419884-99.493051-219.419884-219.419884 0-119.926832 99.493051-219.419884 219.419884-219.419883 119.926832 0 219.419884 99.493051 219.419883 219.419883 0 119.926832-99.493051 219.419884-219.419883 219.419884z m0 0" fill="#3399FF" p-id="4667"></path><path d="M668.537356 468.88229c-2.919112-5.838223-5.838223-8.757335-11.676446-8.757335l-93.654829-14.595557-40.989191-79.059271c-5.838223-8.757335-20.433781-8.757335-26.393633 0l-43.908303 79.059271-93.654828 11.676446c-5.838223 0-11.676446 5.838223-11.676446 8.757335 0 2.919112 0 11.676446 2.919111 14.595557l70.180307 64.342084-14.595558 87.816605c0 5.838223 0 11.676446 5.838223 14.595558 2.919112 2.919112 8.757335 2.919112 11.676446 0l84.897494-40.989192 84.897494 40.989192c2.919112 0 2.919112 2.919112 5.838223 2.919111s5.838223 0 8.757334-2.919111c5.838223-2.919112 5.838223-8.757335 5.838224-14.595558l-14.595558-87.816605 67.261195-61.422972c3.040741-2.919112 3.040741-8.757335 3.040741-14.595558zM571.963416 530.305262c-5.838223 2.919112-5.838223 8.757335-5.838223 11.676446l11.676446 67.261195-64.342083-32.231857c-2.919112 0-2.919112-2.919112-5.838223-2.919111s-5.838223 0-5.838223 2.919111L437.319397 609.364533l11.676446-67.261195c0-5.838223 0-8.757335-5.838223-14.595558l-49.746526-43.908303 70.180306-8.757334c5.838223 0 8.757335-2.919112 11.676447-8.757335l32.231856-61.422972 32.231857 61.422972c2.919112 2.919112 5.838223 5.838223 11.676446 8.757335l70.180306 8.757334-49.624896 46.705785z m0 0" fill="#3399FF" p-id="4668"></path></svg>